<svg version="1.1" preserveAspectRatio="none" xmlns="http://www.w3.org/2000/svg" width="500" height="500" viewBox="0 0 500 500"><rect width="100%" height="100%" fill="#FFFFFF" fill-opacity="1"/><svg viewBox="115.4341 173.2383 503.5582 82" width="333" height="54.226105343930456" x="83.5px" y="222.8869px" xmlns="http://www.w3.org/2000/svg" xmlns:xlink="http://www.w3.org/1999/xlink" preserveAspectRatio="none"><defs></defs><style>.companyName {fill:#182145;fill-opacity:1;}.icon1 {fill:#182145;fill-opacity:1;}.icon2 {fill:#E35B34;fill-opacity:1;}.icon3 {fill:#E3D454;fill-opacity:1;}.icon3-str {stroke:#E3D454;stroke-opacity:1;}.text {fill:#182145;fill-opacity:1;}</style><g opacity="1" transform="rotate(0 115.4341 173.2383)">
<svg width="87.5208" height="82" x="115.4341" y="173.2383" version="1.1" preserveAspectRatio="none" viewBox="19.885984420776367 24.985984802246094 160.114013671875 150.01400756835938">
  <g transform="matrix(1 0 0 1 0 0)"><g><path d="M28.8 59.9l4.1-4.9c1.1-1.3.9-3.3-.4-4.4-1.3-1.1-3.3-.9-4.4.4L24 56c-1.1 1.3-.9 3.3.4 4.4 1.3 1 3.3.9 4.4-.5z" data-color="1" class="icon1"></path><path d="M41.6 54.3c-1.1 1.3-.9 3.3.4 4.4 1.3 1.1 3.3.9 4.4-.4l4.1-4.9c1.1-1.3.9-3.3-.4-4.4-1.3-1.1-3.3-.9-4.4.4 1.1-1.3.9-3.3-.4-4.4-1.3-1.1-3.3-.9-4.4.4l-4.1 4.9c-1.1 1.3-.9 3.3.4 4.4 1.3 1.1 3.3.9 4.4-.4z" data-color="1" class="icon1"></path><path d="M49 35.8l-4.1 4.9c-1.1 1.3-.9 3.2.4 4.3 1.3 1.1 3.3.9 4.4-.4l4.1-4.9c1.1-1.3.9-3.3-.4-4.4-1.4-1-3.3-.9-4.4.5z" data-color="1" class="icon1"></path><path d="M57.7 35c-1.1 1.3-.9 3.3.4 4.4 1.3 1.1 3.3.9 4.4-.4l4.1-4.9c1.1-1.3.9-3.3-.4-4.4-1.3-1.1-3.3-.9-4.4.4 1.1-1.3.9-3.3-.4-4.4-1.3-1.1-3.3-.9-4.4.4L52.9 31c-1.1 1.3-.9 3.3.4 4.4 1.3 1.1 3.3.9 4.4-.4z" data-color="1" class="icon1"></path><path d="M34.3 72.7c1.1-1.3.9-3.3-.4-4.4-1.3-1.1-3.3-.9-4.4.4 1.1-1.3.9-3.3-.4-4.4-1.3-1.1-3.3-.9-4.4.4l-4.1 4.9c-1.1 1.3-.9 3.3.4 4.4 1.3 1.1 3.3.9 4.4-.4-1.1 1.3-.9 3.3.4 4.4 1.3 1.1 3.3.9 4.4-.4 0-.1 4.1-4.9 4.1-4.9z" data-color="1" class="icon1"></path><path d="M38.6 72.3c-1.3-1.1-3.3-.9-4.4.4l-4.1 4.9c-1.1 1.3-.9 3.3.4 4.4 1.3 1.1 3.3.9 4.4-.4l4.1-4.9c1.1-1.4.9-3.3-.4-4.4z" data-color="1" class="icon1"></path><path d="M43 71.9l4.1-4.9c1.1-1.3.9-3.3-.4-4.4-1.3-1.1-3.3-.9-4.4.4 1.1-1.3.9-3.3-.4-4.4-1.3-1.1-3.3-.9-4.4.4 1.1-1.3.9-3.3-.4-4.4-1.3-1.1-3.3-.9-4.4.4l-4.1 4.9c-1.1 1.3-.9 3.3.4 4.4 1.3 1.1 3.3.9 4.4-.4-1.1 1.3-.9 3.3.4 4.4 1.3 1.1 3.3.9 4.4-.4-1.1 1.3-.9 3.3.4 4.4 1.4 1.1 3.3.9 4.4-.4z" data-color="1" class="icon1"></path><path d="M62.4 39c-1.1 1.3-.9 3.3.4 4.4 1.3 1.1 3.3.9 4.4-.4-1.1 1.3-.9 3.3.4 4.4 1.3 1.1 3.3.9 4.4-.4-1.1 1.3-.9 3.3.4 4.4 1.3 1.1 3.3.9 4.4-.4-1.1 1.3-.9 3.3.4 4.4 1.3 1.1 3.3.9 4.4-.4l4.1-4.9c1.1-1.3.9-3.3-.4-4.4-1.3-1.1-3.3-.9-4.4.4 1.1-1.3.9-3.3-.4-4.4-1.5-1.2-3.4-1-4.5.3 1.1-1.3.9-3.3-.4-4.4-1.3-1.1-3.3-.9-4.4.4 1.1-1.3.9-3.3-.4-4.4-1.3-1.1-3.3-.9-4.4.4.1.1-4 5-4 5z" data-color="1" class="icon1"></path><path d="M47.7 75.9l4.1-4.9c1.1-1.3.9-3.3-.4-4.4-1.3-1.1-3.3-.9-4.4.4l-4 4.9c-1.1 1.3-.9 3.3.4 4.4 1.3 1 3.2.9 4.3-.4z" data-color="1" class="icon1"></path><path d="M55.1 57.3c1.1-1.3.9-3.3-.4-4.4-1.3-1.1-3.3-.9-4.4.4l-4.1 4.9c-1.1 1.3-.9 3.3.4 4.4 1.3 1.1 3.3.9 4.4-.4-1.1 1.3-.9 3.3.4 4.4 1.3 1.1 3.3.9 4.4-.4l4.1-4.9c1.1-1.3.9-3.3-.4-4.4-1.3-1-3.3-.9-4.4.4z" data-color="1" class="icon1"></path><path d="M63.8 56.6l4.1-4.9c1.1-1.3.9-3.3-.4-4.4-1.3-1.1-3.3-.9-4.4.4 1.1-1.3.9-3.3-.4-4.4-1.3-1.1-3.3-.9-4.4.4 1.1-1.3.9-3.3-.4-4.4-1.3-1.1-3.3-.9-4.4.4l-4.1 4.9c-1.1 1.3-.9 3.3.4 4.4 1.3 1.1 3.3.9 4.4-.4-1.1 1.3-.9 3.3.4 4.4 1.3 1.1 3.3.9 4.4-.4-1.1 1.3-.9 3.3.4 4.4 1.4 1 3.3.9 4.4-.4z" data-color="1" class="icon1"></path><path d="M48.5 84.6c1.1-1.3.9-3.3-.4-4.4-1.3-1.1-3.3-.9-4.4.4 1.1-1.3.9-3.3-.4-4.4-1.3-1.1-3.3-.9-4.4.4l-4.1 4.9c-1.1 1.3-.9 3.3.4 4.4 1.3 1.1 3.3.9 4.4-.4-1.1 1.3-.9 3.3.4 4.4 1.3 1.1 3.3.9 4.4-.4l4.1-4.9z" data-color="1" class="icon1"></path><path d="M60.5 70.2l4.1-4.9c1.1-1.3.9-3.3-.4-4.4-1.3-1.1-3.3-.9-4.4.4l-4.1 4.9c-1.1 1.3-.9 3.3.4 4.4 1.4 1.1 3.3.9 4.4-.4z" data-color="1" class="icon1"></path><path d="M67.9 51.7l-4.1 4.9c-1.1 1.3-.9 3.3.4 4.4 1.3 1.1 3.3.9 4.4-.4l4.1-4.9c1.1-1.3.9-3.3-.4-4.4-1.3-1.1-3.3-.9-4.4.4z" data-color="1" class="icon1"></path><path d="M57.2 83.8c-1.1 1.3-.9 3.3.4 4.4 1.3 1.1 3.3.9 4.4-.4l4.1-4.9c1.1-1.3.9-3.3-.4-4.4-1.3-1.1-3.3-.9-4.4.4 1.1-1.3.9-3.3-.4-4.4-1.3-1.1-3.3-.9-4.4.4 1.1-1.3.9-3.3-.4-4.4-1.3-1.1-3.3-.9-4.4.4l-4.1 4.9c-1.1 1.3-.9 3.3.4 4.4 1.3 1.1 3.3.9 4.4-.4-1.1 1.3-.9 3.3.4 4.4 1.4 1.1 3.3.9 4.4-.4z" data-color="1" class="icon1"></path><path d="M73.3 64.5c-1.1 1.3-.9 3.3.4 4.4 1.3 1.1 3.3.9 4.4-.4l4.1-4.9c1.1-1.3.9-3.3-.4-4.4-1.3-1.1-3.3-.9-4.4.4 1.1-1.3.9-3.3-.4-4.4-1.3-1.1-3.3-.9-4.4.4l-4.1 4.9c-1.1 1.3-.9 3.3.4 4.4 1.4 1.1 3.3.9 4.4-.4z" data-color="1" class="icon1"></path><path d="M58 92.5c1.1-1.3.9-3.3-.4-4.4-1.3-1.1-3.3-.9-4.4.4 1.1-1.3.9-3.3-.4-4.4-1.3-1.1-3.3-.9-4.4.4l-4.1 4.9c-1.1 1.3-.9 3.3.4 4.4 1.3 1.1 3.3.9 4.4-.4-1.1 1.3-.9 3.3.4 4.4 1.3 1.1 3.3.9 4.4-.4l4.1-4.9z" data-color="1" class="icon1"></path><path d="M81.4 54.9c-1.1 1.3-.9 3.3.4 4.4 1.3 1.1 3.3.9 4.4-.4-1.1 1.3-.9 3.3.4 4.4 1.3 1.1 3.3.9 4.4-.4-1.1 1.3-.9 3.3.4 4.4 1.3 1.1 3.3.9 4.4-.4l4.1-4.9c1.1-1.3.9-3.3-.4-4.4-1.3-1.1-3.3-.9-4.4.4 1.1-1.3.9-3.3-.4-4.4-1.3-1.1-3.3-.9-4.4.4 1.1-1.3.9-3.3-.4-4.4-1.3-1.1-3.3-.9-4.4.4l-4.1 4.9z" data-color="1" class="icon1"></path><path d="M67.5 100.5c1.1-1.3.9-3.3-.4-4.4-1.3-1.1-3.3-.9-4.4.4 1.1-1.3.9-3.3-.4-4.4-1.3-1.1-3.3-.9-4.4.4l-4.1 4.9c-1.1 1.3-.9 3.3.4 4.4 1.3 1.1 3.3.9 4.4-.4-1.1 1.3-.9 3.3.4 4.4 1.3 1.1 3.3.9 4.4-.4l4.1-4.9z" data-color="1" class="icon1"></path><path d="M75.1 86.5c1.3 1.1 3.3.9 4.4-.4l4.1-4.9c1.1-1.3.9-3.3-.4-4.4-1.3-1.1-3.3-.9-4.4.4 1.1-1.3.9-3.3-.4-4.4-1.3-1.1-3.3-.9-4.4.4 1.1-1.3.9-3.3-.4-4.4-1.3-1.1-3.3-.9-4.4.4 1.1-1.3.9-3.3-.4-4.4-1.3-1.1-3.3-.9-4.4.4l-4.1 4.9c-1.1 1.3-.9 3.3.4 4.4 1.3 1.1 3.3.9 4.4-.4-1.1 1.3-.9 3.3.4 4.4 1.3 1.1 3.3.9 4.4-.4-1.1 1.3-.9 3.3.4 4.4 1.3 1.1 3.3.9 4.4-.4-1 1.3-.9 3.3.4 4.4z" data-color="1" class="icon1"></path><path d="M86.9 67.6c1.1-1.3.9-3.3-.4-4.4-1.3-1.1-3.3-.9-4.4.4L78 68.5c-1.1 1.3-.9 3.3.4 4.4 1.3 1.1 3.3.9 4.4-.4-1.1 1.3-.9 3.3.4 4.4 1.3 1.1 3.3.9 4.4-.4l4.1-4.9c1.1-1.3.9-3.3-.4-4.4-1.4-1.1-3.3-.9-4.4.4z" data-color="1" class="icon1"></path><path d="M76.2 99.7c-1.1 1.3-.9 3.3.4 4.4 1.3 1.1 3.3.9 4.4-.4l4.1-4.9c1.1-1.3.9-3.3-.4-4.4-1.3-1.1-3.3-.9-4.4.4 1.1-1.3.9-3.3-.4-4.4 0 0-.1 0-.1-.1l-.1-.1c-1.1-.9-2.6-.9-3.8-.1.6-1.2.3-2.8-.8-3.7-1.3-1.1-3.3-.9-4.4.4 1.1-1.3.9-3.3-.4-4.4-1.3-1.1-3.3-.9-4.4.4l-3.9 5c-1.1 1.3-.9 3.3.4 4.4 1.3 1.1 3.3.9 4.4-.4-1.1 1.3-.9 3.3.4 4.4 1.1.9 2.6.9 3.8.1-.6 1.2-.3 2.8.8 3.7 0 0 .1 0 .1.1l.1.1c1.2 1 3.1.8 4.2-.5z" data-color="1" class="icon1"></path><path d="M95.6 66.8c-1.1 1.3-.9 3.3.4 4.4 1.3 1.1 3.3.9 4.4-.4l4.1-4.9c1.1-1.3.9-3.3-.4-4.4-1.3-1.1-3.3-.9-4.4.4l-4.1 4.9z" data-color="1" class="icon1"></path><path d="M77 108.4c1.1-1.3.9-3.3-.4-4.4-1.3-1.1-3.3-.9-4.4.4 1.1-1.3.9-3.3-.4-4.4-1.3-1.1-3.3-.9-4.4.4l-4.1 4.9c-1.1 1.3-.9 3.3.4 4.4 1.3 1.1 3.3.9 4.4-.4-1.1 1.3-.9 3.3.4 4.4 1.3 1.1 3.3.9 4.4-.4l4.1-4.9z" data-color="1" class="icon1"></path><path d="M100.3 70.8c-1.1 1.3-.9 3.3.4 4.4 1.3 1.1 3.3.9 4.4-.4-1.1 1.3-.9 3.3.4 4.4-1.3-1.1-3.3-.9-4.4.4L97 84.4c-1.1 1.3-.9 3.3.4 4.4 1.3 1.1 3.3.9 4.4-.4-1.1 1.3-.9 3.3.4 4.4 1.3 1.1 3.3.9 4.4-.4l4.1-4.9c1.1-1.3.9-3.3-.4-4.4-1.3-1.1-3.3-.9-4.4.4 1.1-1.3.9-3.3-.4-4.4 1.3 1.1 3.3.9 4.4-.4-1.1 1.3-.9 3.3.4 4.4 1.3 1.1 3.3.9 4.4-.4l4.1-4.9c1.1-1.3.9-3.3-.4-4.4-1.3-1.1-3.3-.9-4.4.4 1.1-1.3.9-3.3-.4-4.4-1.3-1.1-3.3-.9-4.4.4 1.1-1.3.9-3.3-.4-4.4-1.3-1.1-3.3-.9-4.4.4l-4.1 5z" data-color="1" class="icon1"></path><path d="M81.7 112.4c1.1-1.3.9-3.3-.4-4.4-1.3-1.1-3.3-.9-4.4.4l-4.1 4.9c-1.1 1.3-.9 3.3.4 4.4 1.3 1.1 3.3.9 4.4-.4l4.1-4.9z" data-color="1" class="icon1"></path><path d="M85 98.8l-4.1 4.9c-1.1 1.3-.9 3.3.4 4.4 1.3 1.1 3.3.9 4.4-.4l4.1-4.9c1.1-1.3.9-3.3-.4-4.4-1.3-1.1-3.3-.9-4.4.4z" data-color="1" class="icon1"></path><path d="M93.7 98l4.1-4.9c1.1-1.3.9-3.3-.4-4.4-1.3-1.1-3.3-.9-4.4.4 1.1-1.3.9-3.3-.4-4.4 1.3 1.1 3.3.9 4.4-.4l4.1-4.9c1.1-1.3.9-3.3-.4-4.4-1.3-1.1-3.3-.9-4.4.4 1.1-1.3.9-3.3-.4-4.4-1.3-1.1-3.3-.9-4.4.4l-4.1 4.9c-1.1 1.3-.9 3.3.4 4.4 1.3 1.1 3.3.9 4.4-.4-1.1 1.3-.9 3.3.4 4.4-1.3-1.1-3.3-.9-4.4.4 1.1-1.3.9-3.3-.4-4.4-1.3-1.1-3.3-.9-4.4.4L79.3 86c-1.1 1.3-.9 3.3.4 4.4 1.3 1.1 3.3.9 4.4-.4-1.1 1.3-.9 3.3.4 4.4 1.3 1.1 3.3.9 4.4-.4-1.1 1.3-.9 3.3.4 4.4 1.4 1.1 3.3.9 4.4-.4z" data-color="1" class="icon1"></path><path d="M90.4 111.6c-1.1 1.3-.9 3.3.4 4.4 1.3 1.1 3.3.9 4.4-.4l4.1-4.9c1.1-1.3.9-3.3-.4-4.4-1.3-1.1-3.3-.9-4.4.4 1.1-1.3.9-3.3-.4-4.4-1.3-1.1-3.3-.9-4.4.4l-4.1 4.9c-1.1 1.3-.9 3.3.4 4.4 1.4 1.1 3.3 1 4.4-.4z" data-color="1" class="icon1"></path><path d="M111.3 96.3l4.1-4.9c1.1-1.3.9-3.3-.4-4.4-1.3-1.1-3.3-.9-4.4.4l-4.1 4.9c-1.1 1.3-.9 3.3.4 4.4 1.3 1.1 3.3.9 4.4-.4z" data-color="1" class="icon1"></path><path d="M114.6 82.7c-1.1 1.3-.9 3.3.4 4.4 1.3 1.1 3.3.9 4.4-.4l4.1-4.9c1.1-1.3.9-3.3-.4-4.4-1.3-1.1-3.3-.9-4.4.4l-4.1 4.9z" data-color="1" class="icon1"></path><path d="M95.9 124.4c1.1-1.3.9-3.3-.4-4.4-1.3-1.1-3.3-.9-4.4.4 1.1-1.3.9-3.3-.4-4.4-1.3-1.1-3.3-.9-4.4.4 1.1-1.3.9-3.3-.4-4.4-1.3-1.1-3.3-.9-4.4.4l-4.1 4.9c-1.1 1.3-.9 3.3.4 4.4 1.3 1.1 3.3.9 4.4-.4-1.1 1.3-.9 3.3.4 4.4 1.3 1.1 3.3.9 4.4-.4-1.1 1.3-.9 3.3.4 4.4 1.3 1.1 3.3.9 4.4-.4l4.1-4.9z" data-color="1" class="icon1"></path><path d="M119.3 86.7c-1.1 1.3-.9 3.3.4 4.4 1.3 1.1 3.3.9 4.4-.4-1.1 1.3-.9 3.3.4 4.4 1.3 1.1 3.3.9 4.4-.4l4.1-4.9c1.1-1.3.9-3.3-.4-4.4-1.3-1.1-3.3-.9-4.4.4 1.1-1.3.9-3.3-.4-4.4-1.3-1.1-3.3-.9-4.4.4l-4.1 4.9z" data-color="1" class="icon1"></path><path d="M100.7 128.3c1.1-1.3.9-3.3-.4-4.4-1.3-1.1-3.3-.9-4.4.4l-4.1 4.9c-1.1 1.3-.9 3.3.4 4.4 1.3 1.1 3.3.9 4.4-.4l4.1-4.9z" data-color="1" class="icon1"></path><path d="M104 114.7c1.1-1.3.9-3.3-.4-4.4-1.3-1.1-3.3-.9-4.4.4l-4.1 4.9c-1.1 1.3-.9 3.3.4 4.4 1.3 1.1 3.3.9 4.4-.4-1.1 1.3-.9 3.3.4 4.4 1.3 1.1 3.3.9 4.4-.4l4.1-4.9c1.1-1.3.9-3.3-.4-4.4-1.4-1.1-3.3-.9-4.4.4z" data-color="1" class="icon1"></path><path d="M112.7 113.9l4.1-4.9c1.1-1.3.9-3.3-.4-4.4-1.3-1.1-3.3-.9-4.4.4 1.1-1.3.9-3.3-.4-4.4-1.3-1.1-3.3-.9-4.4.4 1.1-1.3.9-3.3-.4-4.4-1.3-1.1-3.3-.9-4.4.4 1.1-1.3.9-3.3-.4-4.4-1.3-1.1-3.3-.9-4.4.4l-3.9 5c-1.1 1.3-.9 3.3.4 4.4 1.3 1.1 3.3.9 4.4-.4-1.1 1.3-.9 3.3.4 4.4 1.3 1.1 3.3.9 4.4-.4-1.1 1.3-.9 3.3.4 4.4 1.3 1.1 3.3.9 4.4-.4-1.1 1.3-.9 3.3.4 4.4 1.2 1 3.1.8 4.2-.5z" data-color="1" class="icon1"></path><path d="M120.1 95.4c1.1-1.3.9-3.3-.4-4.4-1.3-1.1-3.3-.9-4.4.4l-4.1 4.9c-1.1 1.3-.9 3.3.4 4.4 1.3 1.1 3.3.9 4.4-.4-1.1 1.3-.9 3.3.4 4.4 1.3 1.1 3.3.9 4.4-.4-1.1 1.3-.9 3.3.4 4.4 1.3 1.1 3.3.9 4.4-.4l4.1-4.9c1.1-1.3.9-3.3-.4-4.4-1.3-1.1-3.3-.9-4.4.4 1.1-1.3.9-3.3-.4-4.4-1.4-1.1-3.3-.9-4.4.4z" data-color="1" class="icon1"></path><path d="M109.4 127.6c-1.1 1.3-.9 3.3.4 4.4 1.3 1.1 3.3.9 4.4-.4l4.1-4.9c1.1-1.3.9-3.3-.4-4.4-1.3-1.1-3.3-.9-4.4.4 1.1-1.3.9-3.3-.4-4.4-1.3-1.1-3.3-.9-4.4.4l-4.1 4.9c-1.1 1.3-.9 3.3.4 4.4 1.3 1 3.3.9 4.4-.4z" data-color="1" class="icon1"></path><path d="M116.8 109l-4.1 4.9c-1.1 1.3-.9 3.3.4 4.4 1.3 1.1 3.3.9 4.4-.4l4.1-4.9c1.1-1.3.9-3.3-.4-4.4-1.4-1-3.3-.9-4.4.4z" data-color="1" class="icon1"></path><path d="M128.8 94.6c-1.1 1.3-.9 3.3.4 4.4 1.3 1.1 3.3.9 4.4-.4-1.1 1.3-.9 3.3.4 4.4 1.3 1.1 3.3.9 4.4-.4l4.1-4.9c1.1-1.3.9-3.3-.4-4.4-1.3-1.1-3.3-.9-4.4.4 1.1-1.3.9-3.3-.4-4.4-1.3-1.1-3.3-.9-4.4.4l-4.1 4.9z" data-color="1" class="icon1"></path><path d="M130.2 112.2l4.1-4.9c1.1-1.3.9-3.3-.4-4.4-1.3-1.1-3.3-.9-4.4.4l-4.1 4.9c-1.1 1.3-.9 3.3.4 4.4 1.4 1.1 3.3.9 4.4-.4z" data-color="1" class="icon1"></path><path d="M114.9 140.3c1.1-1.3.9-3.3-.4-4.4-1.3-1.1-3.3-.9-4.4.4 1.1-1.3.9-3.3-.4-4.4-1.3-1.1-3.3-.9-4.4.4 1.1-1.3.9-3.3-.4-4.4-1.3-1.1-3.3-.9-4.4.4l-4.1 4.9c-1.1 1.3-.9 3.3.4 4.4 1.3 1.1 3.3.9 4.4-.4-1.1 1.3-.9 3.3.4 4.4 1.3 1.1 3.3.9 4.4-.4-1.1 1.3-.9 3.3.4 4.4 1.3 1.1 3.3.9 4.4-.4l4.1-4.9z" data-color="1" class="icon1"></path><path d="M122.6 126.2c-1.3-1.1-3.3-.9-4.4.4l-4.1 4.9c-1.1 1.3-.9 3.3.4 4.4 1.3 1.1 3.3.9 4.4-.4l4.1-4.9c1.1-1.3.9-3.3-.4-4.4z" data-color="1" class="icon1"></path><path d="M126.9 125.9l4.1-4.9c1.1-1.3.9-3.3-.4-4.4-1.3-1.1-3.3-.9-4.4.4 1.1-1.3.9-3.3-.4-4.4-1.3-1.1-3.3-.9-4.4.4l-4.1 4.9c-1.1 1.3-.9 3.3.4 4.4 1.3 1.1 3.3.9 4.4-.4-1.1 1.3-.9 3.3.4 4.4 1.4 1 3.3.9 4.4-.4z" data-color="1" class="icon1"></path><path d="M138.3 102.6c-1.1 1.3-.9 3.3.4 4.4-1.3-1.1-3.3-.9-4.4.4l-4.1 4.9c-1.1 1.3-.9 3.3.4 4.4 1.3 1.1 3.3.9 4.4-.4-1.1 1.3-.9 3.3.4 4.4 1.3 1.1 3.3.9 4.4-.4-1.1 1.3-.9 3.3.4 4.4 1.3 1.1 3.3.9 4.4-.4l4.1-4.9c1.1-1.3.9-3.3-.4-4.4-1.3-1.1-3.3-.9-4.4.4 1.1-1.3.9-3.3-.4-4.4-1.3-1.1-3.3-.9-4.4.4 1.1-1.3.9-3.3-.4-4.4 1.3 1.1 3.3.9 4.4-.4-1.1 1.3-.9 3.3.4 4.4 1.3 1.1 3.3.9 4.4-.4l4.1-4.9c1.1-1.3.9-3.3-.4-4.4-1.3-1.1-3.3-.9-4.4.4 1.1-1.3.9-3.3-.4-4.4-1.3-1.1-3.3-.9-4.4.4l-4.1 4.9z" data-color="1" class="icon1"></path><path d="M119.3 139.9c1.3 1.1 3.3.9 4.4-.4l4.1-4.9c1.1-1.3.9-3.3-.4-4.4-1.3-1.1-3.3-.9-4.4.4l-4.1 4.9c-1.1 1.3-.9 3.3.4 4.4z" data-color="1" class="icon1"></path><path d="M131 121l-4.1 4.9c-1.1 1.3-.9 3.3.4 4.4 1.3 1.1 3.3.9 4.4-.4-1.1 1.3-.9 3.3.4 4.4 1.3 1.1 3.3.9 4.4-.4l4.1-4.9c1.1-1.3.9-3.3-.4-4.4-1.3-1.1-3.3-.9-4.4.4 1.1-1.3.9-3.3-.4-4.4-1.3-1.1-3.3-.9-4.4.4z" data-color="1" class="icon1"></path><path d="M128.4 143.5l4.1-4.9c1.1-1.3.9-3.3-.4-4.4-1.3-1.1-3.3-.9-4.4.4l-4.1 4.9c-1.1 1.3-.9 3.3.4 4.4 1.3 1 3.3.9 4.4-.4z" data-color="1" class="icon1"></path><path d="M147.8 110.5c-1.1 1.3-.9 3.3.4 4.4 1.3 1.1 3.3.9 4.4-.4-1.1 1.3-.9 3.3.4 4.4 1.3 1.1 3.3.9 4.4-.4l4.1-4.9c1.1-1.3.9-3.3-.4-4.4-1.3-1.1-3.3-.9-4.4.4 1.1-1.3.9-3.3-.4-4.4-1.3-1.1-3.3-.9-4.4.4l-4.1 4.9z" data-color="1" class="icon1"></path><path d="M148.5 119.3l-4.1 4.9c-1.1 1.3-.9 3.3.4 4.4 1.3 1.1 3.3.9 4.4-.4l4.1-4.9c1.1-1.3.9-3.3-.4-4.4-1.3-1.1-3.3-.9-4.4.4z" data-color="1" class="icon1"></path><path d="M133.9 156.2c1.1-1.3.9-3.3-.4-4.4-1.3-1.1-3.3-.9-4.4.4 1.1-1.3.9-3.3-.4-4.4-1.3-1.1-3.3-.9-4.4.4 1.1-1.3.9-3.3-.4-4.4-1.3-1.1-3.3-.9-4.4.4 1.1-1.3.9-3.3-.4-4.4-1.3-1.1-3.3-.9-4.4.4l-4.1 4.9c-1.1 1.3-.9 3.3.4 4.4 1.3 1.1 3.3.9 4.4-.4-1.1 1.3-.9 3.3.4 4.4 1.3 1.1 3.3.9 4.4-.4-1.1 1.3-.9 3.3.4 4.4 1.3 1.1 3.3.9 4.4-.4-1.1 1.3-.9 3.3.4 4.4 1.3 1.1 3.3.9 4.4-.4l4.1-4.9z" data-color="1" class="icon1"></path><path d="M137.2 142.5c1.1-1.3.9-3.3-.4-4.4-1.3-1.1-3.3-.9-4.4.4l-4.1 4.9c-1.1 1.3-.9 3.3.4 4.4 1.3 1.1 3.3.9 4.4-.4-1.1 1.3-.9 3.3.4 4.4 1.3 1.1 3.3.9 4.4-.4-1.1 1.3-.9 3.3.4 4.4 1.3 1.1 3.3.9 4.4-.4l4.1-4.9c1.1-1.3.9-3.3-.4-4.4-1.3-1.1-3.3-.9-4.4.4 1.1-1.3.9-3.3-.4-4.4-1.4-1-3.3-.9-4.4.4z" data-color="1" class="icon1"></path><path d="M145.9 141.8l4.1-4.9c1.1-1.3.9-3.3-.4-4.4-1.3-1.1-3.3-.9-4.4.4 1.1-1.3.9-3.3-.4-4.4-1.3-1.1-3.3-.9-4.4.4l-4.1 4.9c-1.1 1.3-.9 3.3.4 4.4 1.3 1.1 3.3.9 4.4-.4-1.1 1.3-.9 3.3.4 4.4 1.4 1 3.3.9 4.4-.4z" data-color="1" class="icon1"></path><path d="M157.6 122.9c-1.3-1.1-3.3-.9-4.4.4l-4.1 4.9c-1.1 1.3-.9 3.3.4 4.4 1.3 1.1 3.3.9 4.4-.4l4.1-4.9c1.1-1.4 1-3.3-.4-4.4z" data-color="1" class="icon1"></path><path d="M162 122.5l4.1-4.9c1.1-1.3.9-3.3-.4-4.4-1.3-1.1-3.3-.9-4.4.4l-4.1 4.9c-1.1 1.3-.9 3.3.4 4.4 1.4 1.1 3.3.9 4.4-.4z" data-color="1" class="icon1"></path><path d="M138.6 160.1c1.1-1.3.9-3.3-.4-4.4-1.3-1.1-3.3-.9-4.4.4l-4.1 4.9c-1.1 1.3-.9 3.3.4 4.4 1.3 1.1 3.3.9 4.4-.4-1.1 1.3-.9 3.3.4 4.4 1.3 1.1 3.3.9 4.4-.4l4.1-4.9c1.1-1.3.9-3.3-.4-4.4-1.3-1-3.3-.9-4.4.4z" data-color="1" class="icon1"></path><path d="M146.7 150.5l-4.1 4.9c-1.1 1.3-.9 3.3.4 4.4 1.3 1.1 3.3.9 4.4-.4l4.1-4.9c1.1-1.3.9-3.3-.4-4.4-1.4-1.1-3.3-.9-4.4.4z" data-color="1" class="icon1"></path><path d="M162.8 131.2c1.1-1.3.9-3.3-.4-4.4-1.3-1.1-3.3-.9-4.4.4l-4.1 4.9c-1.1 1.3-.9 3.3.4 4.4-1.3-1.1-3.3-.9-4.4.4l-4.1 4.9c-1.1 1.3-.9 3.3.4 4.4 1.3 1.1 3.3.9 4.4-.4-1.1 1.3-.9 3.3.4 4.4 1.3 1.1 3.3.9 4.4-.4l4.1-4.9c1.1-1.3.9-3.3-.4-4.4-1.3-1.1-3.3-.9-4.4.4 1.1-1.3.9-3.3-.4-4.4 1.3 1.1 3.3.9 4.4-.4-1.1 1.3-.9 3.3.4 4.4 1.3 1.1 3.3.9 4.4-.4l4.1-4.9c1.1-1.3.9-3.3-.4-4.4-1.4-1.1-3.3-.9-4.4.4z" data-color="1" class="icon1"></path><path d="M175.2 121.2c-1.3-1.1-3.3-.9-4.4.4 1.1-1.3.9-3.3-.4-4.4-1.3-1.1-3.3-.9-4.4.4l-4.1 4.9c-1.1 1.3-.9 3.3.4 4.4 1.3 1.1 3.3.9 4.4-.4-1.1 1.3-.9 3.3.4 4.4 1.3 1.1 3.3.9 4.4-.4l4.1-4.9c1.1-1.4.9-3.3-.4-4.4z" data-color="1" class="icon1"></path><path d="M32.1 46.3c-1.1 1.3-.9 3.3.4 4.4 1.3 1.1 3.3.9 4.4-.4l4.1-4.9c1.1-1.3.9-3.3-.4-4.4-1.3-1.1-3.3-.9-4.4.4 1.1-1.3.9-3.3-.4-4.4-1.3-1.1-3.3-.9-4.4.4l-4.1 4.9c-1.1 1.3-.9 3.3.4 4.4 1.3 1.1 3.3.9 4.4-.4z" data-color="1" class="icon1"></path><path d="M44.9 40.6l4.1-4.9c1.1-1.3.9-3.3-.4-4.4-1.3-1.1-3.3-.9-4.4.4l-4.1 4.9c-1.1 1.4-.9 3.3.4 4.4 1.3 1.1 3.3 1 4.4-.4z" data-color="1" class="icon1"></path><path d="M100 146.7l30.6 25.7 15.2 2.6 15.5-15.2 9.9 6 5.7-6.8-8.4-8.8 11.5-16.7-6.4-19.9-37-31 11.6 58.5-48.2 5.6z" data-color="2" class="icon2"></path><path d="M149.4 104.1c-1.1 0-2 .9-2 2s.9 2 2 2 2-.9 2-2-.9-2-2-2z" data-color="3" class="icon3"></path><path d="M154.2 108.3c-1.1 0-2 .9-2 2s.9 2 2 2 2-.9 2-2-.9-2-2-2z" data-color="3" class="icon3"></path><path d="M149.1 112.2c-1.1 0-2 .9-2 2s.9 2 2 2 2-.9 2-2-.9-2-2-2z" data-color="3" class="icon3"></path><path d="M159.3 112.5c-1.1 0-2 .9-2 2s.9 2 2 2 2-.9 2-2c.1-1.1-.8-2-2-2z" data-color="3" class="icon3"></path><path d="M153.9 116.4c-1.1 0-2 .9-2 2s.9 2 2 2 2-.9 2-2-.9-2-2-2z" data-color="3" class="icon3"></path><path d="M164.1 116.7c-1.1 0-2 .9-2 2s.9 2 2 2 2-.9 2-2c.1-1.1-.8-2-2-2z" data-color="3" class="icon3"></path><path d="M159.1 120.6c-1.1 0-2 .9-2 2s.9 2 2 2 2-.9 2-2-.9-2-2-2z" data-color="3" class="icon3"></path><path d="M168.6 124.9c1.1 0 2-.9 2-2s-.9-2-2-2-2 .9-2 2 .9 2 2 2z" data-color="3" class="icon3"></path><path d="M153.7 124.4c-1.1 0-2 .9-2 2s.9 2 2 2 2-.9 2-2-.9-2-2-2z" data-color="3" class="icon3"></path><path d="M163.9 124.8c-1.1 0-2 .9-2 2s.9 2 2 2 2-.9 2-2-.9-2-2-2z" data-color="3" class="icon3"></path><path d="M158.9 128.6c-1.1 0-2 .9-2 2s.9 2 2 2 2-.9 2-2-.9-2-2-2z" data-color="3" class="icon3"></path><path d="M169.1 128.9c-1.1 0-2 .9-2 2s.9 2 2 2 2-.9 2-2-.9-2-2-2z" data-color="3" class="icon3"></path><path d="M153.4 132.5c-1.1 0-2 .9-2 2s.9 2 2 2 2-.9 2-2-.9-2-2-2z" data-color="3" class="icon3"></path><path d="M163.7 132.8c-1.1 0-2 .9-2 2s.9 2 2 2 2-.9 2-2-.9-2-2-2z" data-color="3" class="icon3"></path><path d="M158.6 136.7c-1.1 0-2 .9-2 2s.9 2 2 2 2-.9 2-2-.9-2-2-2z" data-color="3" class="icon3"></path><path d="M163.6 139.6c-1.1 0-2 .9-2 2s.9 2 2 2 2-.9 2-2-.9-2-2-2z" data-color="3" class="icon3"></path></g></g>
</svg>
</g><g opacity="1" transform="rotate(0 222.9549 235.2383)">
<svg width="190.3041" height="20" x="222.9549" y="235.2383" version="1.1" preserveAspectRatio="none" viewBox="-0.52 -29.68 286.28 30.08">
  <g transform="matrix(1 0 0 1 0 0)" class="text"><path id="id-6izo4zJp13" d="M8.12 0.40Q5.44 0.40 3.18-0.66Q0.92-1.72-0.52-3.64L-0.52-3.64L2.44-7.20Q4.76-4 8-4L8-4Q12.36-4 12.36-9.16L12.36-9.16L12.36-23.64L2.40-23.64L2.40-28L17.56-28L17.56-9.44Q17.56-4.52 15.16-2.06Q12.76 0.40 8.12 0.40L8.12 0.40Z M41.24-21.36L46.24-21.36L46.24 0L41.48 0L41.48-2.72Q40.28-1.28 38.48-0.50Q36.68 0.28 34.60 0.28L34.60 0.28Q30.32 0.28 27.86-2.10Q25.40-4.48 25.40-9.16L25.40-9.16L25.40-21.36L30.40-21.36L30.40-9.84Q30.40-6.96 31.70-5.54Q33-4.12 35.40-4.12L35.40-4.12Q38.08-4.12 39.66-5.78Q41.24-7.44 41.24-10.56L41.24-10.56L41.24-21.36Z M60.60 0.28Q58.00 0.28 55.52-0.40Q53.04-1.08 51.56-2.12L51.56-2.12L53.48-5.92Q54.92-4.96 56.94-4.38Q58.96-3.80 60.92-3.80L60.92-3.80Q65.40-3.80 65.40-6.16L65.40-6.16Q65.40-7.28 64.26-7.72Q63.12-8.16 60.60-8.56L60.60-8.56Q57.96-8.96 56.30-9.48Q54.64-10 53.42-11.30Q52.20-12.60 52.20-14.92L52.20-14.92Q52.20-17.96 54.74-19.78Q57.28-21.60 61.60-21.60L61.60-21.60Q63.80-21.60 66-21.10Q68.20-20.60 69.60-19.76L69.60-19.76L67.68-15.96Q64.96-17.56 61.56-17.56L61.56-17.56Q59.36-17.56 58.22-16.90Q57.08-16.24 57.08-15.16L57.08-15.16Q57.08-13.96 58.30-13.46Q59.52-12.96 62.08-12.52L62.08-12.52Q64.64-12.12 66.28-11.60Q67.92-11.08 69.10-9.84Q70.28-8.60 70.28-6.32L70.28-6.32Q70.28-3.32 67.68-1.52Q65.08 0.28 60.60 0.28L60.60 0.28Z M87.24-4.72L88.64-1.16Q87.76-0.44 86.50-0.08Q85.24 0.28 83.84 0.28L83.84 0.28Q80.32 0.28 78.40-1.56Q76.48-3.40 76.48-6.92L76.48-6.92L76.48-17.20L72.96-17.20L72.96-21.20L76.48-21.20L76.48-26.08L81.48-26.08L81.48-21.20L87.20-21.20L87.20-17.20L81.48-17.20L81.48-7.04Q81.48-5.48 82.24-4.66Q83.00-3.84 84.44-3.84L84.44-3.84Q86.12-3.84 87.24-4.72L87.24-4.72Z M142.64-28L147.60-28L138.32 0L132.80 0L125.88-20.72L118.84 0L113.28 0L104.00-28L109.40-28L116.36-6.72L123.60-28L128.40-28L135.48-6.60L142.64-28Z M159.12-21.60Q163.84-21.60 166.34-19.34Q168.84-17.08 168.84-12.52L168.84-12.52L168.84 0L164.12 0L164.12-2.60Q163.20-1.20 161.50-0.46Q159.80 0.28 157.40 0.28L157.40 0.28Q155.00 0.28 153.20-0.54Q151.40-1.36 150.42-2.82Q149.44-4.28 149.44-6.12L149.44-6.12Q149.44-9 151.58-10.74Q153.72-12.48 158.32-12.48L158.32-12.48L163.84-12.48L163.84-12.80Q163.84-15.04 162.50-16.24Q161.16-17.44 158.52-17.44L158.52-17.44Q156.72-17.44 154.98-16.88Q153.24-16.32 152.04-15.32L152.04-15.32L150.08-18.96Q151.76-20.24 154.12-20.92Q156.48-21.60 159.12-21.60L159.12-21.60ZM158.44-3.36Q160.32-3.36 161.78-4.22Q163.24-5.08 163.84-6.68L163.84-6.68L163.84-9.16L158.68-9.16Q154.36-9.16 154.36-6.32L154.36-6.32Q154.36-4.96 155.44-4.16Q156.52-3.36 158.44-3.36L158.44-3.36Z M187.88-4.72L189.28-1.16Q188.40-0.44 187.14-0.08Q185.88 0.28 184.48 0.28L184.48 0.28Q180.96 0.28 179.04-1.56Q177.12-3.40 177.12-6.92L177.12-6.92L177.12-17.20L173.60-17.20L173.60-21.20L177.12-21.20L177.12-26.08L182.12-26.08L182.12-21.20L187.84-21.20L187.84-17.20L182.12-17.20L182.12-7.04Q182.12-5.48 182.88-4.66Q183.64-3.84 185.08-3.84L185.08-3.84Q186.76-3.84 187.88-4.72L187.88-4.72Z M203.68 0.28Q200.36 0.28 197.72-1.12Q195.08-2.52 193.60-5.02Q192.12-7.52 192.12-10.68L192.12-10.68Q192.12-13.84 193.60-16.32Q195.08-18.80 197.70-20.20Q200.32-21.60 203.68-21.60L203.68-21.60Q206.84-21.60 209.22-20.32Q211.60-19.04 212.80-16.64L212.80-16.64L208.96-14.40Q208.04-15.88 206.66-16.62Q205.28-17.36 203.64-17.36L203.64-17.36Q200.84-17.36 199.00-15.54Q197.16-13.72 197.16-10.68L197.16-10.68Q197.16-7.64 198.98-5.82Q200.80-4 203.64-4L203.64-4Q205.28-4 206.66-4.74Q208.04-5.48 208.96-6.96L208.96-6.96L212.80-4.72Q211.56-2.32 209.18-1.02Q206.80 0.28 203.68 0.28L203.68 0.28Z M230.24-21.60Q234.28-21.60 236.72-19.24Q239.16-16.88 239.16-12.24L239.16-12.24L239.16 0L234.16 0L234.16-11.60Q234.16-14.40 232.84-15.82Q231.52-17.24 229.08-17.24L229.08-17.24Q226.32-17.24 224.72-15.58Q223.12-13.92 223.12-10.80L223.12-10.80L223.12 0L218.12 0L218.12-29.68L223.12-29.68L223.12-18.88Q224.36-20.20 226.18-20.90Q228.00-21.60 230.24-21.60L230.24-21.60Z M259.44 0L259.44-28L264.64-28L264.64 0L259.44 0Z M284.36-4.72L285.76-1.16Q284.88-0.44 283.62-0.08Q282.36 0.28 280.96 0.28L280.96 0.28Q277.44 0.28 275.52-1.56Q273.60-3.40 273.60-6.92L273.60-6.92L273.60-17.20L270.08-17.20L270.08-21.20L273.60-21.20L273.60-26.08L278.60-26.08L278.60-21.20L284.32-21.20L284.32-17.20L278.60-17.20L278.60-7.04Q278.60-5.48 279.36-4.66Q280.12-3.84 281.56-3.84L281.56-3.84Q283.24-3.84 284.36-4.72L284.36-4.72Z"/></g>
</svg>
</g><g opacity="1" transform="rotate(0 222.9549 173.2383)">
<svg width="396.0374" height="50" x="222.9549" y="173.2383" version="1.1" preserveAspectRatio="none" viewBox="3.32 -28 221.76 28">
  <g transform="matrix(1 0 0 1 0 0)" class="companyName"><path id="id-D6z1nYkh8" d="M28.12 0L21.16 0L15.76-7.80L15.44-7.80L9.80-7.80L9.80 0L3.32 0L3.32-28L15.44-28Q19.16-28 21.90-26.76Q24.64-25.52 26.12-23.24Q27.60-20.96 27.60-17.84L27.60-17.84Q27.60-14.72 26.10-12.46Q24.60-10.20 21.84-9L21.84-9L28.12 0ZM21.04-17.84Q21.04-20.20 19.52-21.46Q18-22.72 15.08-22.72L15.08-22.72L9.80-22.72L9.80-12.96L15.08-12.96Q18-12.96 19.52-14.24Q21.04-15.52 21.04-17.84L21.04-17.84Z M39.16-5.20L54.40-5.20L54.40 0L32.72 0L32.72-28L53.88-28L53.88-22.80L39.16-22.80L39.16-16.72L52.16-16.72L52.16-11.68L39.16-11.68L39.16-5.20Z M79.64-28L86.08-28L73.96 0L67.56 0L55.48-28L62.48-28L71-8L79.64-28Z M88.40 0L88.40-28L94.88-28L94.88 0L88.40 0Z M107.96-5.20L123.20-5.20L123.20 0L101.52 0L101.52-28L122.68-28L122.68-22.80L107.96-22.80L107.96-16.72L120.96-16.72L120.96-11.68L107.96-11.68L107.96-5.20Z M164.08-28L170.28-28L161.12 0L154.16 0L148-18.96L141.64 0L134.72 0L125.52-28L132.24-28L138.56-8.32L145.16-28L151.16-28L157.56-8.16L164.08-28Z M179.76 0L179.76-22.72L170.80-22.72L170.80-28L195.20-28L195.20-22.72L186.24-22.72L186.24 0L179.76 0Z M218.64-28L225.08-28L212.96 0L206.56 0L194.48-28L201.48-28L210-8L218.64-28Z"/></g>
</svg>
</g></svg></svg>